@startuml
class inheritance.펭귄 {
+ void swim()
}
class inheritance.박쥐 {
+ void fly()
}
class inheritance.고래 {
+ void swim()
}
class inheritance.참새 {
+ void fly()
}
class inheritance.동물 {
~ String kind
~ void showMe()
}
interface inheritance.날수있는 {
~ void fly()
}
class inheritance.조류 {
}
interface inheritance.헤엄칠수있는 {
~ void swim()
}
class inheritance.포유류 {
}


inheritance.헤엄칠수있는 <|.. inheritance.펭귄
inheritance.조류 <|-- inheritance.펭귄
inheritance.날수있는 <|.. inheritance.박쥐
inheritance.포유류 <|-- inheritance.박쥐
inheritance.헤엄칠수있는 <|.. inheritance.고래
inheritance.포유류 <|-- inheritance.고래
inheritance.날수있는 <|.. inheritance.참새
inheritance.조류 <|-- inheritance.참새
inheritance.동물 <|-- inheritance.조류
inheritance.동물 <|-- inheritance.포유류
@enduml